<svg width="312" height="681" viewBox="0 0 312 681" fill="none" xmlns="http://www.w3.org/2000/svg">
<rect x="25.9392" y="0.855026" width="286.061" height="680.047" fill="#CCCCCC"/>
<path d="M137.148 414.933H147.19L165.51 357.978L183.829 414.933H216.873L236.821 349.732H207.849L198.078 384.03L178.808 322.502H153.161L134.23 383.407L117.607 322.502H85.3772L97.9297 363.521L137.148 414.933Z" fill="#FFC600"/>
<path d="M147.054 280.374L151.668 280.859L167.545 282.591H168.97H170.395L186.272 280.859L190.886 280.374L192.243 280.235L193.125 280.027V258.548L190.886 256.469L186.272 252.104L174.737 241.225H173.72V264.922H164.153V241.225H163.338L151.804 252.104L147.19 256.469L144.951 258.548V280.027L145.833 280.235L147.054 280.374ZM180.03 278.156V278.018L180.098 277.879L180.165 277.741L180.233 277.602L180.301 277.533L180.437 277.464L180.573 277.394L180.708 277.325H180.844H180.98H181.115L181.251 277.394L181.387 277.464L181.522 277.533L181.59 277.602L181.658 277.741L181.726 277.879V277.949V278.018V278.087V278.156V278.295V278.434V278.503V278.572V278.641V278.711L181.658 278.849L181.59 278.988L181.522 279.057L181.387 279.126L181.251 279.196L181.115 279.265H180.98H180.844H180.708L180.573 279.196L180.437 279.126L180.301 279.057L180.233 278.988L180.165 278.849L180.098 278.711L180.03 278.572V278.434V278.156ZM156.146 278.156V278.018L156.214 277.879L156.282 277.741L156.35 277.602L156.418 277.533L156.553 277.464L156.689 277.394L156.825 277.325H156.96H157.096H157.232L157.367 277.394L157.503 277.464L157.639 277.533L157.707 277.602L157.775 277.741L157.842 277.879V277.949V278.018V278.087V278.156V278.295V278.434V278.503V278.572V278.641V278.711L157.775 278.849L157.707 278.988L157.639 279.057H157.571L157.503 279.126L157.367 279.196L157.232 279.265H157.096H156.96H156.825L156.689 279.196L156.553 279.126L156.418 279.057L156.35 278.988L156.282 278.849L156.214 278.711L156.146 278.572V278.434V278.156Z" fill="#FFC600"/>
<path d="M164.696 264.229H173.041V206.026H164.696V264.229ZM169.513 243.928L169.581 243.72L169.649 243.512L169.784 243.304L169.988 243.165L170.191 243.027L170.395 242.958H170.666H170.938L171.141 243.027L171.345 243.165L171.549 243.304L171.684 243.512L171.82 243.72L171.888 243.928V244.205L171.82 244.482L171.752 244.62L171.616 244.828L171.481 245.036L171.277 245.175L171.074 245.244L170.87 245.313H170.599L170.395 245.244L170.191 245.175L169.988 245.036L169.784 244.828L169.649 244.69L169.581 244.482L169.513 244.274V243.928ZM169.513 261.458L169.581 261.25L169.649 261.042L169.784 260.834L169.988 260.696L170.191 260.557L170.395 260.488H170.666H170.87L171.074 260.557L171.277 260.696L171.481 260.834L171.616 261.042L171.752 261.25L171.82 261.458V261.735L171.752 262.012L171.684 262.151L171.549 262.359L171.413 262.566L171.209 262.705L171.006 262.774L170.802 262.844H170.531L170.327 262.774L170.124 262.705L169.92 262.566L169.784 262.428L169.649 262.22L169.581 262.012L169.513 261.804V261.458ZM166.053 243.928L166.12 243.72L166.188 243.512L166.324 243.304L166.528 243.165L166.731 243.027L166.935 242.958H167.138H167.41L167.613 243.027L167.817 243.165L168.02 243.304L168.156 243.512L168.292 243.72L168.36 243.928V244.205L168.292 244.482L168.224 244.62L168.088 244.828L167.952 245.036L167.749 245.175L167.545 245.244L167.342 245.313H167.07L166.867 245.244L166.663 245.175L166.46 245.036L166.256 244.828L166.12 244.62L166.053 244.413L165.985 244.135L166.053 243.928ZM166.053 261.458L166.12 261.25L166.188 261.042L166.324 260.834L166.528 260.696L166.731 260.557L166.935 260.488H167.206H167.41L167.613 260.557L167.817 260.696L168.02 260.834L168.156 261.042L168.292 261.25L168.36 261.458V261.735L168.292 262.012L168.224 262.151L168.088 262.359L167.952 262.566L167.749 262.705L167.545 262.844L167.274 262.913H167.07L166.867 262.844L166.663 262.774L166.46 262.636L166.324 262.497L166.188 262.289L166.12 262.081L166.053 261.804V261.458Z" fill="#FFC600"/>
<path d="M129.073 274.415L129.141 274.623L129.209 274.831L129.277 275.038L129.412 275.246L129.548 275.454L129.684 275.593L129.82 275.731L129.955 275.87L130.159 276.009L130.362 276.078L130.566 276.147L131.991 276.632L133.484 277.117L134.976 277.602L135.112 277.671V267.209L129.752 272.267L129.616 272.405L129.48 272.544L129.345 272.752L129.209 272.96L129.141 273.168L129.073 273.376L129.005 273.583V273.791V273.999V274.207L129.073 274.415ZM132.127 272.96V272.752L132.194 272.613L132.262 272.475V272.405L132.33 272.336L132.398 272.267L132.466 272.198L132.601 272.128L132.737 272.059L132.873 271.99H133.009H133.144H133.28L133.416 272.059L133.551 272.128L133.687 272.198L133.755 272.267L133.823 272.405L133.891 272.544L133.959 272.683V272.821V272.96V273.098V273.237L133.891 273.376L133.823 273.514L133.755 273.653L133.687 273.722L133.551 273.791L133.416 273.861L133.28 273.93H133.144H133.009H132.873L132.737 273.861L132.601 273.791L132.466 273.722L132.398 273.653L132.33 273.583L132.262 273.514V273.445L132.194 273.306L132.127 273.168V273.029V272.96Z" fill="#FFC600"/>
<path d="M204.321 277.117L205.813 276.632L207.238 276.147L207.442 276.078L207.645 276.009L207.849 275.87L207.985 275.731L208.12 275.593L208.256 275.454L208.392 275.246L208.527 275.038L208.595 274.831L208.663 274.623L208.731 274.415V274.207V273.999V273.791V273.583L208.663 273.376L208.595 273.168L208.527 272.96L208.392 272.752L208.256 272.544L208.12 272.405L207.985 272.267L202.624 267.209V277.671L202.76 277.602L204.321 277.117ZM203.913 272.89V272.752L203.981 272.613L204.049 272.475L204.117 272.336L204.185 272.267L204.321 272.198L204.456 272.128L204.592 272.059H204.728H204.863H204.999L205.135 272.128L205.27 272.198L205.406 272.267L205.474 272.336L205.542 272.475L205.61 272.613V272.683V272.752V272.821V272.89V273.029V273.168V273.237V273.306V273.376V273.445L205.542 273.583L205.474 273.722L205.406 273.791L205.27 273.861L205.135 273.93L204.999 273.999H204.863H204.728H204.592L204.456 273.93L204.321 273.861L204.185 273.791L204.117 273.722L204.049 273.583L203.981 273.445L203.913 273.306V273.168V272.89Z" fill="#FFC600"/>
<path d="M168.902 148.447C171.209 148.447 173.244 149.694 174.466 151.496V144.636L170.53 130.778L170.462 130.64L170.395 130.501L170.327 130.363L170.191 130.224L170.055 130.085L169.92 130.016L169.784 129.947L169.648 129.878L169.512 129.808H169.309H169.105H168.902L168.766 129.878L168.63 129.947L168.495 130.016L168.359 130.085L168.223 130.224L168.088 130.363L168.02 130.501L167.952 130.64L167.884 130.778L163.813 144.636V151.011C164.899 149.486 166.798 148.447 168.902 148.447Z" fill="#FFC600"/>
<path d="M177.79 450.756C176.772 449.994 175.551 449.647 174.262 449.647H158.656C157.231 449.647 156.01 450.063 154.924 450.825C153.839 451.587 153.364 452.488 153.364 453.389V464.059C153.364 465.237 153.839 466.069 154.857 466.762C155.874 467.455 157.096 467.732 158.588 467.732H174.262C175.687 467.732 176.908 467.385 177.858 466.623C178.808 465.861 179.351 465.029 179.351 464.059V453.25C179.351 452.35 178.876 451.518 177.79 450.756Z" fill="#FFC600"/>
<path d="M121.542 450.687C120.524 449.924 119.302 449.578 118.013 449.578H99.2864V458.586H118.013C119.506 458.586 120.727 458.239 121.677 457.477C122.627 456.784 123.102 455.883 123.102 454.913V453.25C123.102 452.28 122.559 451.449 121.542 450.687Z" fill="#FFC600"/>
<path d="M288.388 450.687C287.37 449.924 286.149 449.578 284.86 449.578H266.133V458.586H284.86C286.352 458.586 287.574 458.239 288.524 457.477C289.474 456.784 289.949 455.883 289.949 454.913V453.25C290.016 452.28 289.474 451.449 288.388 450.687Z" fill="#FFC600"/>
<path d="M26.4143 430.315V487.063H311.457V430.315H26.4143ZM77.9812 453.319H69.1606C69.1606 452.349 68.6178 451.518 67.5322 450.756C66.4465 449.994 65.2252 449.647 63.8682 449.647H53.1477C51.7228 449.647 50.4336 450.063 49.4159 450.825C48.3981 451.587 47.8553 452.419 47.8553 453.389V464.198C47.8553 465.376 48.3303 466.277 49.348 466.9C50.3658 467.524 51.5871 467.87 53.0798 467.87H63.8682C65.4288 467.87 66.6501 467.524 67.6679 466.831C68.6856 466.138 69.1606 465.237 69.1606 464.198H58.3722V457.685H77.9812V467.801C77.9812 469.88 77.0992 471.542 75.2672 472.928C73.4352 474.314 71.3997 475.007 69.0249 475.007H47.7874C45.2769 475.007 43.1736 474.314 41.4773 472.928C39.781 471.542 38.8989 469.81 38.8989 467.801V449.647C38.8989 447.776 39.781 446.183 41.4773 444.658C43.2414 443.203 45.277 442.441 47.5839 442.441H68.8213C71.3997 442.441 73.5709 443.134 75.3351 444.52C77.0313 445.906 77.9134 447.707 77.9134 449.786V453.319H77.9812ZM131.991 457.338C131.991 458.516 131.652 459.694 130.973 460.733C130.295 461.773 129.412 462.604 128.259 463.297C129.209 463.782 129.887 464.129 130.362 464.406C131.38 465.099 131.923 465.999 131.923 467.108V474.938H122.967V468.909C122.967 467.87 122.627 467.108 121.881 466.623C121.067 466.069 119.71 465.791 117.81 465.791H99.2187V474.938H90.398V442.441H123.034C125.613 442.441 127.716 443.134 129.48 444.589C131.177 445.975 132.059 447.707 132.059 449.786V457.338H131.991ZM188.307 453.319V467.732C188.307 469.81 187.425 471.473 185.593 472.859C183.761 474.245 181.726 474.938 179.351 474.938H153.364C150.853 474.938 148.75 474.245 147.054 472.859C145.358 471.473 144.543 469.741 144.543 467.732V449.578C144.543 447.776 145.425 446.113 147.122 444.589C148.886 443.134 150.921 442.372 153.228 442.372H179.283C181.862 442.372 184.033 443.065 185.729 444.45C187.425 445.836 188.307 447.568 188.307 449.647V453.319ZM244.692 467.732C244.692 469.81 243.81 471.473 241.978 472.859C240.146 474.245 238.11 474.938 235.735 474.938H209.748C207.238 474.938 205.134 474.245 203.438 472.859C201.742 471.473 200.928 469.741 200.928 467.732V442.441H209.748V464.059C209.748 465.168 210.223 466.069 211.241 466.762C212.259 467.454 213.48 467.732 214.973 467.732H230.647C232.071 467.732 233.293 467.385 234.243 466.623C235.193 465.861 235.735 465.029 235.735 464.059V442.441H244.692V467.732ZM298.905 458.585C298.905 460.595 298.023 462.327 296.191 463.713C294.427 465.099 292.323 465.791 289.949 465.791H266.133V474.938H257.312V442.441H289.949C292.527 442.441 294.63 443.134 296.394 444.589C298.091 445.975 298.973 447.707 298.973 449.786V458.585H298.905Z" fill="#FFC600"/>
<path d="M215.584 322.502H215.448L209.884 342.595H239.06H245.506V414.933H276.514V342.595H312V322.502H245.167H215.584Z" fill="black"/>
<path d="M197.942 372.944L181.182 319.314H150.853L134.433 372.043L120.048 319.314H81.1018L95.147 365.114L135.586 418.19H149.564L165.577 368.371L181.59 418.19H219.179L241.163 346.545H205.473L197.942 372.944ZM236.82 349.732L216.872 414.933H183.829L165.509 357.978L147.189 414.933H137.079L97.9289 363.521L85.3764 322.502H117.606L134.229 383.337L153.16 322.502H178.808L198.077 384.03L207.848 349.732H236.82Z" fill="black"/>
<path d="M26.4143 322.502V414.933H57.2866V389.989L66.0394 380.912L92.5014 414.933H126.563L86.5984 363.451L75.335 322.502L57.2866 358.324V322.502H26.4143Z" fill="black"/>
<path d="M148.072 173.599L148.614 173.114V172.352V136.252V135.144L147.597 134.728L145.358 133.896L143.186 133.065V135.421V174.223V177.687L145.765 175.47L148.072 173.599ZM144.883 135.421L147.122 136.252V172.352L144.883 174.223V135.421Z" fill="black"/>
<path d="M190.886 294.578H186.272H151.736H147.122H144.883H143.323V296.172V297.765V299.359H144.883H147.122H151.736H186.272H190.886H193.125H194.686V297.765V296.172V294.578H193.125H190.886ZM193.057 297.765H190.818H186.204H151.668H147.054H144.815V296.172H147.054H151.668H186.204H190.818H193.057V297.765Z" fill="black"/>
<path d="M192.039 175.539L194.617 177.756V174.292V135.49V133.134L192.446 133.966L190.207 134.797L189.189 135.213V136.322V172.421V173.183L189.732 173.668L192.039 175.539ZM190.885 136.252L193.125 135.421V174.223L190.885 172.352V136.252Z" fill="black"/>
<path d="M156.145 164.037H181.59V164.245H183.354V161.404H178.876V159.325H173.38C174.329 158.286 174.872 156.9 174.872 155.307C174.872 154.475 174.669 153.644 174.397 152.882C173.515 150.734 171.412 149.209 168.901 149.209C166.662 149.209 164.695 150.526 163.677 152.397C163.202 153.297 162.93 154.267 162.93 155.307C162.93 156.831 163.541 158.217 164.423 159.325H158.927V161.404H154.72V164.245H156.213V164.037H156.145ZM164.355 156.762C164.355 156.623 164.287 156.554 164.287 156.485C164.22 156.138 164.152 155.792 164.152 155.376C164.152 154.475 164.423 153.713 164.762 152.951C165.577 151.496 167.137 150.456 168.901 150.456C170.665 150.456 172.226 151.427 173.04 152.951C173.447 153.644 173.719 154.475 173.719 155.376C173.719 155.792 173.651 156.138 173.583 156.485C173.583 156.623 173.515 156.692 173.515 156.831C173.447 157.108 173.38 157.316 173.244 157.524C173.176 157.593 173.108 157.732 173.108 157.801C172.972 158.009 172.837 158.217 172.633 158.425C172.565 158.494 172.497 158.563 172.43 158.633C172.226 158.91 171.955 159.118 171.683 159.325C171.615 159.395 171.548 159.395 171.412 159.464C171.276 159.533 171.073 159.672 170.937 159.741C170.869 159.811 170.733 159.811 170.666 159.88C170.462 159.949 170.326 160.018 170.123 160.018C170.055 160.018 169.919 160.088 169.851 160.088C169.58 160.157 169.308 160.157 168.969 160.157C168.698 160.157 168.359 160.088 168.087 160.088C168.019 160.088 167.884 160.018 167.816 160.018C167.612 159.949 167.476 159.949 167.273 159.88C167.137 159.811 167.069 159.811 167.002 159.741C166.866 159.672 166.662 159.603 166.527 159.464C166.459 159.395 166.391 159.395 166.255 159.325C165.984 159.118 165.712 158.91 165.509 158.633C165.441 158.563 165.373 158.494 165.305 158.425C165.17 158.217 164.966 158.009 164.83 157.801C164.762 157.732 164.695 157.593 164.695 157.524C164.491 157.247 164.423 156.97 164.355 156.762ZM160.488 161.404V160.919H164.423H165.712C165.848 160.988 166.052 161.127 166.187 161.196C166.323 161.266 166.459 161.335 166.594 161.335C166.798 161.404 167.069 161.473 167.341 161.543C167.476 161.543 167.544 161.612 167.68 161.612C168.087 161.681 168.426 161.751 168.834 161.751C169.241 161.751 169.58 161.681 169.987 161.612C170.123 161.612 170.191 161.543 170.394 161.543C170.666 161.473 170.869 161.404 171.073 161.335C171.208 161.266 171.344 161.196 171.48 161.196C171.615 161.127 171.819 161.058 171.955 160.919H173.244H177.179V161.404V162.374H160.352V161.404H160.488Z" fill="black"/>
<path d="M171.822 261.182L171.686 260.973L171.551 260.765L171.347 260.627L171.143 260.488L170.871 260.418H170.667H170.396L170.192 260.488L169.988 260.627L169.784 260.835L169.648 261.043L169.58 261.251L169.512 261.459V261.737V261.945L169.648 262.222L169.784 262.361L169.92 262.569L170.124 262.708L170.396 262.777L170.599 262.847H170.871L171.075 262.777L171.279 262.708L171.483 262.5L171.618 262.361L171.754 262.153L171.822 261.945L171.89 261.667V261.39L171.822 261.182Z" fill="black"/>
<path d="M171.822 243.651L171.686 243.443L171.551 243.235L171.347 243.096L171.143 242.958L170.871 242.888H170.667H170.396L170.192 242.958L169.988 243.096L169.784 243.305L169.648 243.513L169.58 243.721L169.512 243.929V244.206V244.415L169.648 244.692L169.784 244.9L169.92 245.039L170.124 245.178L170.328 245.247L170.599 245.316H170.871L171.075 245.247L171.279 245.178L171.483 244.97L171.618 244.831L171.754 244.623L171.822 244.415L171.89 244.137V243.86L171.822 243.651Z" fill="black"/>
<path d="M168.362 261.182L168.226 260.973L168.091 260.765L167.887 260.627L167.683 260.488L167.479 260.418H167.207H167.004L166.732 260.488L166.528 260.627L166.392 260.835L166.256 261.043L166.12 261.251L166.052 261.459V261.737L166.12 261.945L166.188 262.222L166.324 262.361L166.528 262.569L166.732 262.708L166.936 262.777L167.139 262.847H167.411L167.615 262.777L167.887 262.638L168.023 262.5L168.226 262.361L168.362 262.153L168.43 261.945V261.667V261.39L168.362 261.182Z" fill="black"/>
<path d="M168.362 243.651L168.226 243.443L168.091 243.235L167.887 243.096L167.683 242.958L167.479 242.888H167.207H167.004L166.732 243.027L166.528 243.096L166.392 243.305L166.256 243.513L166.12 243.721L166.052 243.929V244.206L166.12 244.415L166.188 244.692L166.324 244.9L166.528 245.039L166.732 245.178L166.936 245.247L167.139 245.316H167.411L167.615 245.247L167.887 245.178L168.023 244.97L168.226 244.831L168.362 244.623L168.43 244.415V244.137V243.86L168.362 243.651Z" fill="black"/>
<path d="M134.162 261.319H133.687H133.212H132.737H132.262H131.787L131.312 261.388L130.837 261.458L130.362 261.596L129.887 261.735L129.48 261.873L129.005 262.012L128.53 262.22L128.123 262.428L127.716 262.636L127.241 262.844L126.834 263.121L126.495 263.398L126.088 263.675L125.68 263.952L125.341 264.299L125.002 264.645L124.663 264.991L124.323 265.338L124.052 265.684L123.713 266.1L123.441 266.516L123.238 266.932L122.966 267.347L122.763 267.763L122.559 268.248L122.356 268.664L122.152 269.149L122.016 269.565L121.881 270.05L121.813 270.535L121.677 271.02L121.609 271.505V271.99L121.542 272.475V272.96V273.445L121.609 273.93V274.415L121.677 274.9L121.813 275.385L121.881 275.87L122.016 276.355L122.152 276.84L122.356 277.256L122.559 277.741L122.763 278.156L122.966 278.572L123.238 278.988L123.441 279.404L123.713 279.819L124.052 280.235L124.323 280.582L124.663 280.997L125.002 281.344L125.341 281.621L125.68 281.967L126.088 282.244L126.495 282.591L126.834 282.868L127.241 283.076L127.716 283.353L128.123 283.561L128.53 283.769L129.005 283.907L129.48 284.115L129.887 284.254L130.362 284.323L130.837 284.462L131.312 284.531L131.787 284.6H132.262L132.737 284.67H133.212L133.687 284.6H134.162L134.637 284.531L135.112 284.462V277.671L134.976 277.602L133.483 277.117L131.991 276.632L130.566 276.147L130.362 276.078L130.159 275.939L129.955 275.801L129.819 275.731L129.684 275.523L129.548 275.385L129.412 275.177L129.277 275.038L129.209 274.831L129.141 274.623L129.073 274.415L129.005 274.207V273.999V273.722L129.073 273.514V273.306L129.141 273.098L129.277 272.89L129.344 272.683L129.48 272.544L129.616 272.336L129.752 272.198L135.112 267.139V261.458L134.637 261.388L134.162 261.319Z" fill="black"/>
<path d="M203.574 284.6H204.049L204.524 284.67H204.999L205.541 284.6H206.016L206.491 284.531L206.966 284.462L207.373 284.323L207.848 284.254L208.323 284.115L208.798 283.907L209.205 283.769L209.68 283.561L210.087 283.353L210.495 283.076L210.902 282.868L211.309 282.591L211.716 282.244L212.055 281.967L212.462 281.621L212.801 281.344L213.141 280.997L213.48 280.582L213.751 280.235L214.023 279.819L214.294 279.404L214.566 278.988L214.837 278.572L215.041 278.156L215.244 277.741L215.448 277.256L215.583 276.84L215.719 276.355L215.855 275.87L215.99 275.385L216.058 274.9L216.126 274.415L216.194 273.93V273.445L216.262 272.96L216.194 272.475V271.99L216.126 271.505L216.058 271.02L215.99 270.535L215.855 270.05L215.719 269.565L215.583 269.149L215.448 268.664L215.244 268.248L215.041 267.763L214.837 267.347L214.566 266.932L214.294 266.516L214.023 266.1L213.751 265.684L213.48 265.338L213.141 264.991L212.801 264.645L212.462 264.299L212.055 263.952L211.716 263.675L211.309 263.398L210.902 263.121L210.495 262.844L210.087 262.636L209.68 262.428L209.205 262.22L208.798 262.012L208.323 261.873L207.848 261.735L207.373 261.596L206.966 261.458L206.491 261.388L206.016 261.319H205.541H204.999H204.524H204.049H203.574L203.099 261.388L202.692 261.458V267.139L208.052 272.198L208.188 272.336L208.323 272.544L208.459 272.683L208.527 272.89L208.595 273.098L208.663 273.306L208.73 273.514V273.722L208.798 273.999L208.73 274.138V274.207V274.415L208.663 274.623L208.595 274.831L208.527 275.038L208.391 275.177L208.255 275.385L208.12 275.523L207.984 275.731L207.78 275.801L207.645 275.939L207.441 276.078L207.238 276.147L205.745 276.632L204.32 277.117L202.827 277.602L202.692 277.671V284.462L203.099 284.531L203.574 284.6Z" fill="black"/>
<path d="M151.735 280.859L147.054 280.374L145.764 280.235L145.832 280.651L145.9 281.136L146.036 281.552L146.172 282.037L146.375 282.522L146.579 282.937L146.782 283.422L146.986 283.838L147.054 284.046L147.189 284.254L147.461 284.67L147.732 285.085L148.004 285.432L148.343 285.848L148.682 286.194L149.021 286.54L149.361 286.887L149.7 287.233L150.107 287.511L150.446 287.788L150.853 288.065L151.26 288.342L151.667 288.55H151.735L152.142 288.758L152.55 288.966L153.024 289.173L153.432 289.312L153.907 289.451L154.382 289.589L154.856 289.659L155.331 289.728L155.806 289.797L156.281 289.866H156.756H157.231H157.706L158.181 289.797L158.656 289.728L159.131 289.659L159.606 289.589L160.081 289.451L160.556 289.312L160.963 289.173L161.438 288.966L161.845 288.758L162.32 288.55L162.727 288.342L163.134 288.065L163.541 287.788L163.949 287.511L164.288 287.233L164.627 286.887L165.034 286.54L165.306 286.194L165.645 285.848L165.984 285.432L166.255 285.085L166.527 284.67L166.798 284.254L167.002 283.838L167.273 283.422L167.477 282.937L167.545 282.66L151.735 280.859Z" fill="black"/>
<path d="M186.204 280.859L170.395 282.66H170.327L170.463 282.937L170.666 283.422L170.938 283.838L171.141 284.254L171.413 284.67L171.684 285.085L171.955 285.432L172.295 285.848L172.634 286.194L172.905 286.54L173.312 286.887L173.652 287.233L173.991 287.511L174.398 287.788L174.805 288.065L175.212 288.342L175.619 288.55L176.094 288.758L176.501 288.966L176.976 289.173L177.383 289.312L177.858 289.451L178.333 289.589L178.808 289.659L179.283 289.728L179.758 289.797L180.233 289.866H180.708H181.183H181.658L182.133 289.797L182.608 289.728L183.083 289.659L183.558 289.589L184.033 289.451L184.508 289.312L184.915 289.173L185.39 288.966L185.797 288.758L186.204 288.55H186.272L186.679 288.342L187.086 288.065L187.493 287.788L187.833 287.511L188.24 287.233L188.579 286.887L188.918 286.54L189.257 286.194L189.597 285.848L189.936 285.432L190.207 285.085L190.479 284.67L190.75 284.254L190.886 284.046L190.954 283.838L191.157 283.422L191.361 282.937L191.564 282.522L191.768 282.037L191.904 281.552L192.039 281.136L192.107 280.651L192.175 280.235L190.886 280.374L186.204 280.859Z" fill="black"/>
<path d="M157.299 168.194V180.32H180.436V167.571V166.254V165.007H157.299V166.254V168.194Z" fill="black"/>
<path d="M168.902 157.524C170.101 157.524 171.073 156.531 171.073 155.307C171.073 154.082 170.101 153.089 168.902 153.089C167.703 153.089 166.731 154.082 166.731 155.307C166.731 156.531 167.703 157.524 168.902 157.524Z" fill="black"/>
<path d="M157.029 279.129C157.232 279.129 157.368 279.059 157.504 278.99C157.64 278.921 157.776 278.782 157.844 278.574C157.844 278.504 157.912 278.504 157.912 278.435C157.912 278.366 157.912 278.296 157.912 278.227C157.912 278.157 157.912 278.088 157.912 278.019C157.912 277.949 157.912 277.88 157.844 277.88C157.708 277.533 157.368 277.325 157.029 277.325C156.553 277.325 156.146 277.741 156.146 278.227C156.146 278.712 156.485 279.129 157.029 279.129Z" fill="black"/>
<path d="M132.398 272.336C132.331 272.406 132.331 272.406 132.263 272.475C132.195 272.614 132.127 272.822 132.127 272.961C132.127 273.169 132.195 273.308 132.263 273.447C132.263 273.516 132.331 273.516 132.398 273.585C132.534 273.724 132.806 273.863 133.01 273.863C133.485 273.863 133.893 273.447 133.893 272.961C133.893 272.475 133.485 272.059 133.01 272.059C132.738 272.059 132.534 272.198 132.398 272.336Z" fill="black"/>
<path d="M180.913 279.129C181.252 279.129 181.592 278.921 181.728 278.574C181.728 278.504 181.796 278.504 181.796 278.435C181.796 278.366 181.796 278.296 181.796 278.227C181.796 278.157 181.796 278.088 181.796 278.019C181.796 277.949 181.796 277.88 181.728 277.88C181.592 277.533 181.252 277.325 180.913 277.325C180.437 277.325 180.03 277.741 180.03 278.227C180.03 278.712 180.437 279.129 180.913 279.129Z" fill="black"/>
<path d="M205.611 273.308C205.611 273.238 205.679 273.169 205.679 273.169C205.679 273.1 205.679 273.03 205.679 272.961C205.679 272.891 205.679 272.822 205.679 272.753C205.679 272.683 205.679 272.683 205.611 272.614C205.475 272.267 205.136 272.059 204.796 272.059C204.32 272.059 203.913 272.475 203.913 272.961C203.913 273.447 204.32 273.863 204.796 273.863C205.136 273.863 205.475 273.655 205.611 273.308Z" fill="black"/>
<path d="M282.824 249.886L202.217 182.052V129.808H193.057L186.204 133.619V168.472L181.59 164.522V166.047V169.58V181.359H156.146V170.273V166.047V164.661L151.668 168.472V133.619L144.815 129.808H135.723V182.052L55.1152 249.886L25.9392 274.415V307.119H49.4157H287.506H311.932V274.415L282.824 249.886ZM55.1152 261.943L135.723 194.317V195.494L55.1152 263.329V261.943ZM55.1152 269.149L135.723 201.869V261.527V267.209V277.671V284.462V291.529H55.1152V269.149ZM55.1152 296.172H135.723V297.765H55.1152V296.172ZM282.824 297.765H202.217V296.172H282.824V297.765ZM282.824 291.46H202.217V284.392V277.602V267.139V261.458V201.869L282.824 269.149V291.46ZM282.824 263.329L202.217 195.494V194.317L282.824 261.943V263.329ZM282.824 259.864L203.234 193.069L200.656 190.921V194.317V195.494V196.257L201.267 196.742L281.874 264.576L282.892 265.407V267.07L203.302 200.622L200.724 198.474V201.869V261.458V267.139V277.602V284.392V291.46V293.054H202.285H282.892V294.509H202.217H200.656V296.102V297.696V299.29H202.217H282.824V305.387H55.1152V299.428H135.723H137.283V297.835V296.241V294.578H135.723H55.1152V293.123H135.723H137.283V291.529V284.462V277.671V267.209V261.527V201.869V198.474L134.705 200.622L55.1152 267.07V265.407L56.133 264.576L136.74 196.742L137.351 196.257V195.494V194.317V190.921L134.773 193.069L55.1831 259.864V251.965L56.2009 251.134L136.808 183.3L137.419 182.815V182.052V131.402H144.611L150.243 134.589V168.402V171.867L152.821 169.65L154.653 168.056V170.204V181.29V182.884H156.214H181.658H183.218V181.29V169.511V167.917L185.254 169.65L187.832 171.867V168.402V134.589L193.464 131.402H200.656V182.052V182.815L201.267 183.3L281.874 251.134L282.892 251.965V259.864H282.824Z" fill="black"/>
<path d="M190.885 204.086H189.324V205.68V252.658L187.9 251.272V205.611V204.017H186.339H173.787H172.701H172.158H165.78H165.441H164.22H151.871H150.31V205.611V251.272L148.885 252.658V205.68V204.086H147.325H145.085H143.525V205.68V258.478V280.027V291.46V293.054H145.085H147.325H148.885V291.46V289.035L150.31 290.074V291.46V293.054H151.871H186.407H187.967V291.46V290.074L189.392 289.035V291.46V293.054H190.953H193.192H194.753V291.46V280.027V258.548V205.749V204.156H193.192H190.885V204.086ZM164.694 206.026H173.04V264.229H164.694V206.026ZM193.056 258.548V280.027V291.46H190.817V284.947L189.935 286.125L188.51 287.58L186.882 288.758L186.203 289.104V291.46H151.667V289.104L150.989 288.758L149.36 287.58L147.935 286.125L147.053 284.877V291.46H144.814V280.027V258.548V205.749H147.053V256.469L151.667 252.104V205.749H164.016V241.225V264.922H173.583V241.225V205.749H186.135V252.104L190.749 256.469V205.749H192.988V258.548H193.056Z" fill="black"/>
<path d="M75.4024 444.52C73.7062 443.134 71.5349 442.441 68.8887 442.441H47.6513C45.3443 442.441 43.3088 443.203 41.5447 444.658C39.7805 446.113 38.9663 447.776 38.9663 449.647V467.801C38.9663 469.81 39.7805 471.542 41.5447 472.928C43.2409 474.314 45.3443 475.007 47.8548 475.007H69.0923C71.3992 475.007 73.5026 474.314 75.3346 472.928C77.1666 471.542 78.0486 469.81 78.0486 467.801V457.615H58.3718V464.128H69.1601C69.1601 465.168 68.6173 465.999 67.6674 466.761C66.6496 467.454 65.3604 467.801 63.8677 467.801H53.0794C51.5866 467.801 50.3653 467.454 49.3476 466.831C48.3298 466.207 47.8548 465.306 47.8548 464.128V453.319C47.8548 452.419 48.3976 451.518 49.4154 450.756C50.4332 449.993 51.7223 449.578 53.1472 449.578H63.8677C65.2247 449.578 66.4461 449.993 67.5317 450.686C68.6173 451.449 69.1601 452.28 69.1601 453.25H77.9808V449.786C77.9808 447.707 77.1666 445.975 75.4024 444.52Z" fill="black"/>
<path d="M129.48 444.52C127.783 443.134 125.612 442.372 123.034 442.372H90.3975V474.869H99.2181V465.722H117.809C119.709 465.722 121.066 466 121.88 466.554C122.559 467.039 122.966 467.801 122.966 468.84V474.869H131.922V467.039C131.922 465.93 131.38 465.03 130.362 464.337C129.887 464.059 129.208 463.644 128.258 463.228C129.412 462.535 130.294 461.704 130.973 460.664C131.651 459.625 131.99 458.516 131.99 457.269V449.717C131.99 447.707 131.176 445.975 129.48 444.52ZM123.102 454.913C123.102 455.883 122.627 456.784 121.677 457.477C120.727 458.17 119.506 458.586 118.013 458.586H99.286V449.578H118.013C119.37 449.578 120.523 449.924 121.541 450.687C122.559 451.449 123.102 452.28 123.102 453.25V454.913Z" fill="black"/>
<path d="M185.729 444.52C184.032 443.134 181.861 442.441 179.283 442.441H153.228C150.921 442.441 148.885 443.203 147.121 444.658C145.357 446.113 144.543 447.776 144.543 449.647V467.801C144.543 469.81 145.357 471.542 147.053 472.928C148.75 474.314 150.853 475.007 153.364 475.007H179.351C181.725 475.007 183.761 474.314 185.593 472.928C187.357 471.542 188.307 469.879 188.307 467.801V453.389V449.786C188.307 447.638 187.425 445.905 185.729 444.52ZM179.351 464.059C179.351 465.029 178.876 465.93 177.858 466.623C176.908 467.385 175.687 467.732 174.262 467.732H158.588C157.095 467.732 155.806 467.385 154.856 466.761C153.839 466.069 153.364 465.168 153.364 464.059V453.389C153.364 452.488 153.906 451.656 154.924 450.825C156.01 449.993 157.231 449.647 158.656 449.647H174.262C175.619 449.647 176.772 449.993 177.79 450.756C178.808 451.518 179.351 452.349 179.351 453.25V464.059Z" fill="black"/>
<path d="M235.735 464.059C235.735 465.029 235.26 465.93 234.243 466.623C233.293 467.385 232.071 467.732 230.647 467.732H214.973C213.48 467.732 212.191 467.385 211.241 466.761C210.223 466.069 209.748 465.168 209.748 464.059V442.441H200.928V467.732C200.928 469.741 201.742 471.473 203.438 472.859C205.134 474.245 207.238 474.938 209.748 474.938H235.735C238.11 474.938 240.146 474.245 241.978 472.859C243.742 471.473 244.692 469.81 244.692 467.732V442.441H235.735V464.059Z" fill="black"/>
<path d="M296.326 444.52C294.63 443.134 292.459 442.372 289.88 442.372H257.244V474.869H266.065V465.722H289.88C292.255 465.722 294.291 465.03 296.123 463.644C297.955 462.258 298.837 460.595 298.837 458.516V449.647C298.905 447.707 298.09 445.975 296.326 444.52ZM290.016 454.913C290.016 455.883 289.541 456.784 288.591 457.477C287.641 458.17 286.42 458.586 284.927 458.586H266.2V449.578H284.927C286.284 449.578 287.438 449.924 288.455 450.687C289.473 451.449 290.016 452.28 290.016 453.25V454.913Z" fill="black"/>
<line x1="4" y1="129" x2="3.99998" y2="552" stroke="#FFA600" stroke-width="8"/>
<line x1="30" y1="1.74013e-07" x2="30" y2="681" stroke="#FFA600" stroke-width="8"/>
</svg>
