<svg width="102" height="130" viewBox="0 0 102 130" fill="none" xmlns="http://www.w3.org/2000/svg">
<path d="M39.5917 103.668H43.1547L49.6547 82.9911L56.1547 103.668H67.8788L74.9566 79.9977H64.6769L61.2103 92.4491L54.3732 70.1121H45.2732L38.5566 92.2227L32.6584 70.1121H21.2232L25.6769 85.0034L39.5917 103.668Z" fill="#FFC600"/>
<path d="M43.1066 54.8182L44.7436 54.9943L50.3769 55.6232H50.8825H51.388L57.0214 54.9943L58.6584 54.8182L59.1399 54.7679L59.4529 54.6925V46.8946L58.6584 46.14L57.0214 44.5553L52.9288 40.606H52.5677V49.2088H49.1732V40.606H48.8843L44.7917 44.5553L43.1547 46.14L42.3603 46.8946V54.6925L42.6732 54.7679L43.1066 54.8182ZM54.8066 54.0133V53.963L54.8306 53.9127L54.8547 53.8624L54.8788 53.8121L54.9029 53.7869L54.951 53.7618L54.9991 53.7366L55.0473 53.7115H55.0954H55.1436H55.1917L55.2399 53.7366L55.288 53.7618L55.3362 53.7869L55.3603 53.8121L55.3843 53.8624L55.4084 53.9127V53.9378V53.963V53.9882V54.0133V54.0636V54.1139V54.1391V54.1642V54.1894V54.2145L55.3843 54.2648L55.3603 54.3152L55.3362 54.3403L55.288 54.3655L55.2399 54.3906L55.1917 54.4158H55.1436H55.0954H55.0473L54.9991 54.3906L54.951 54.3655L54.9029 54.3403L54.8788 54.3152L54.8547 54.2648L54.8306 54.2145L54.8066 54.1642V54.1139V54.0133ZM46.3325 54.0133V53.963L46.3566 53.9127L46.3806 53.8624L46.4047 53.8121L46.4288 53.7869L46.4769 53.7618L46.5251 53.7366L46.5732 53.7115H46.6214H46.6695H46.7177L46.7658 53.7366L46.814 53.7618L46.8621 53.7869L46.8862 53.8121L46.9103 53.8624L46.9343 53.9127V53.9378V53.963V53.9882V54.0133V54.0636V54.1139V54.1391V54.1642V54.1894V54.2145L46.9103 54.2648L46.8862 54.3152L46.8621 54.3403H46.838L46.814 54.3655L46.7658 54.3906L46.7177 54.4158H46.6695H46.6214H46.5732L46.5251 54.3906L46.4769 54.3655L46.4288 54.3403L46.4047 54.3152L46.3806 54.2648L46.3566 54.2145L46.3325 54.1642V54.1139V54.0133Z" fill="#FFC600"/>
<path d="M49.3658 48.9573H52.3269V27.8277H49.3658V48.9573ZM51.0751 41.5871L51.0992 41.5116L51.1232 41.4361L51.1714 41.3607L51.2436 41.3104L51.3158 41.2601L51.388 41.2349H51.4843H51.5806L51.6529 41.2601L51.7251 41.3104L51.7973 41.3607L51.8454 41.4361L51.8936 41.5116L51.9177 41.5871V41.6877L51.8936 41.7883L51.8695 41.8386L51.8214 41.9141L51.7732 41.9895L51.701 42.0398L51.6288 42.065L51.5566 42.0901H51.4603L51.388 42.065L51.3158 42.0398L51.2436 41.9895L51.1714 41.9141L51.1232 41.8638L51.0992 41.7883L51.0751 41.7128V41.5871ZM51.0751 47.9511L51.0992 47.8756L51.1232 47.8002L51.1714 47.7247L51.2436 47.6744L51.3158 47.6241L51.388 47.5989H51.4843H51.5566L51.6288 47.6241L51.701 47.6744L51.7732 47.7247L51.8214 47.8002L51.8695 47.8756L51.8936 47.9511V48.0517L51.8695 48.1523L51.8454 48.2027L51.7973 48.2781L51.7492 48.3536L51.6769 48.4039L51.6047 48.429L51.5325 48.4542H51.4362L51.364 48.429L51.2917 48.4039L51.2195 48.3536L51.1714 48.3033L51.1232 48.2278L51.0992 48.1523L51.0751 48.0769V47.9511ZM49.8473 41.5871L49.8714 41.5116L49.8954 41.4361L49.9436 41.3607L50.0158 41.3104L50.088 41.2601L50.1603 41.2349H50.2325H50.3288L50.401 41.2601L50.4732 41.3104L50.5454 41.3607L50.5936 41.4361L50.6417 41.5116L50.6658 41.5871V41.6877L50.6417 41.7883L50.6177 41.8386L50.5695 41.9141L50.5214 41.9895L50.4492 42.0398L50.3769 42.065L50.3047 42.0901H50.2084L50.1362 42.065L50.064 42.0398L49.9917 41.9895L49.9195 41.9141L49.8714 41.8386L49.8473 41.7631L49.8232 41.6625L49.8473 41.5871ZM49.8473 47.9511L49.8714 47.8756L49.8954 47.8002L49.9436 47.7247L50.0158 47.6744L50.088 47.6241L50.1603 47.5989H50.2566H50.3288L50.401 47.6241L50.4732 47.6744L50.5454 47.7247L50.5936 47.8002L50.6417 47.8756L50.6658 47.9511V48.0517L50.6417 48.1523L50.6177 48.2027L50.5695 48.2781L50.5214 48.3536L50.4492 48.4039L50.3769 48.4542L50.2806 48.4793H50.2084L50.1362 48.4542L50.064 48.429L49.9917 48.3787L49.9436 48.3284L49.8954 48.253L49.8714 48.1775L49.8473 48.0769V47.9511Z" fill="#FFC600"/>
<path d="M36.7269 52.655L36.751 52.7304L36.7751 52.8059L36.7991 52.8814L36.8473 52.9568L36.8954 53.0323L36.9436 53.0826L36.9917 53.1329L37.0399 53.1832L37.1121 53.2335L37.1843 53.2587L37.2566 53.2838L37.7621 53.4599L38.2917 53.636L38.8214 53.8121L38.8695 53.8372V50.0389L36.9677 51.8752L36.9195 51.9255L36.8714 51.9758L36.8232 52.0513L36.7751 52.1267L36.751 52.2022L36.7269 52.2777L36.7029 52.3531V52.4286V52.504V52.5795L36.7269 52.655ZM37.8103 52.1267V52.0513L37.8343 52.001L37.8584 51.9506V51.9255L37.8825 51.9003L37.9066 51.8752L37.9306 51.85L37.9788 51.8249L38.0269 51.7997L38.0751 51.7746H38.1232H38.1714H38.2195L38.2677 51.7997L38.3158 51.8249L38.364 51.85L38.388 51.8752L38.4121 51.9255L38.4362 51.9758L38.4603 52.0261V52.0764V52.1267V52.177V52.2273L38.4362 52.2777L38.4121 52.328L38.388 52.3783L38.364 52.4034L38.3158 52.4286L38.2677 52.4537L38.2195 52.4789H38.1714H38.1232H38.0751L38.0269 52.4537L37.9788 52.4286L37.9306 52.4034L37.9066 52.3783L37.8825 52.3531L37.8584 52.328V52.3028L37.8343 52.2525L37.8103 52.2022V52.1519V52.1267Z" fill="#FFC600"/>
<path d="M63.4251 53.636L63.9547 53.4599L64.4603 53.2838L64.5325 53.2587L64.6047 53.2335L64.6769 53.1832L64.7251 53.1329L64.7732 53.0826L64.8214 53.0323L64.8695 52.9568L64.9177 52.8814L64.9417 52.8059L64.9658 52.7304L64.9899 52.655V52.5795V52.504V52.4286V52.3531L64.9658 52.2777L64.9417 52.2022L64.9177 52.1267L64.8695 52.0513L64.8214 51.9758L64.7732 51.9255L64.7251 51.8752L62.8232 50.0389V53.8372L62.8714 53.8121L63.4251 53.636ZM63.2806 52.1016V52.0513L63.3047 52.001L63.3288 51.9506L63.3529 51.9003L63.3769 51.8752L63.4251 51.85L63.4732 51.8249L63.5214 51.7997H63.5695H63.6177H63.6658L63.714 51.8249L63.7621 51.85L63.8103 51.8752L63.8343 51.9003L63.8584 51.9506L63.8825 52.001V52.0261V52.0513V52.0764V52.1016V52.1519V52.2022V52.2273V52.2525V52.2777V52.3028L63.8584 52.3531L63.8343 52.4034L63.8103 52.4286L63.7621 52.4537L63.714 52.4789L63.6658 52.504H63.6177H63.5695H63.5214L63.4732 52.4789L63.4251 52.4537L63.3769 52.4286L63.3529 52.4034L63.3288 52.3531L63.3047 52.3028L63.2806 52.2525V52.2022V52.1016Z" fill="#FFC600"/>
<path d="M50.8584 6.92441C51.6769 6.92441 52.3991 7.37719 52.8325 8.0312V5.54092L51.4362 0.510057L51.4121 0.459749L51.388 0.409439L51.364 0.359131L51.3158 0.308823L51.2677 0.258514L51.2195 0.23336L51.1714 0.208206L51.1232 0.183052L51.0751 0.157896H51.0029H50.9306H50.8584L50.8103 0.183052L50.7621 0.208206L50.714 0.23336L50.6658 0.258514L50.6177 0.308823L50.5695 0.359131L50.5454 0.409439L50.5214 0.459749L50.4973 0.510057L49.0528 5.54092V7.85512C49.438 7.30172 50.1121 6.92441 50.8584 6.92441Z" fill="#FFC600"/>
<path d="M54.0121 116.673C53.651 116.396 53.2177 116.27 52.7603 116.27H47.2232C46.7177 116.27 46.2843 116.421 45.8991 116.698C45.514 116.975 45.3454 117.302 45.3454 117.629V121.502C45.3454 121.93 45.514 122.232 45.8751 122.483C46.2362 122.735 46.6695 122.836 47.1992 122.836H52.7603C53.2658 122.836 53.6991 122.71 54.0362 122.433C54.3732 122.156 54.5658 121.854 54.5658 121.502V117.578C54.5658 117.251 54.3973 116.949 54.0121 116.673Z" fill="#FFC600"/>
<path d="M34.0547 116.648C33.6936 116.371 33.2603 116.245 32.8028 116.245H26.1584V119.515H32.8028C33.3325 119.515 33.7658 119.389 34.1028 119.113C34.4399 118.861 34.6084 118.534 34.6084 118.182V117.578C34.6084 117.226 34.4158 116.924 34.0547 116.648Z" fill="#FFC600"/>
<path d="M93.2528 116.648C92.8917 116.371 92.4584 116.245 92.001 116.245H85.3566V119.515H92.001C92.5306 119.515 92.964 119.389 93.301 119.113C93.638 118.861 93.8065 118.534 93.8065 118.182V117.578C93.8306 117.226 93.638 116.924 93.2528 116.648Z" fill="#FFC600"/>
<path d="M0.302849 109.252V129.854H101.438V109.252H0.302849ZM18.5991 117.603H15.4695C15.4695 117.251 15.2769 116.949 14.8917 116.673C14.5066 116.396 14.0732 116.27 13.5917 116.27H9.78803C9.28248 116.27 8.82507 116.421 8.46396 116.698C8.10285 116.975 7.91026 117.276 7.91026 117.629V121.553C7.91026 121.98 8.07877 122.307 8.43988 122.534C8.801 122.76 9.23433 122.886 9.76396 122.886H13.5917C14.1454 122.886 14.5788 122.76 14.9399 122.509C15.301 122.257 15.4695 121.93 15.4695 121.553H11.6417V119.188H18.5991V122.861C18.5991 123.615 18.2862 124.219 17.6362 124.722C16.9862 125.225 16.264 125.477 15.4214 125.477H7.88618C6.99544 125.477 6.24915 125.225 5.64729 124.722C5.04544 124.219 4.73248 123.59 4.73248 122.861V116.27C4.73248 115.591 5.04544 115.013 5.64729 114.459C6.27322 113.931 6.99544 113.654 7.81396 113.654H15.3491C16.264 113.654 17.0343 113.906 17.6603 114.409C18.2621 114.912 18.5751 115.566 18.5751 116.321V117.603H18.5991ZM37.7621 119.062C37.7621 119.49 37.6417 119.918 37.401 120.295C37.1603 120.672 36.8473 120.974 36.438 121.226C36.7751 121.402 37.0158 121.527 37.1843 121.628C37.5454 121.88 37.738 122.207 37.738 122.609V125.452H34.5603V123.263C34.5603 122.886 34.4399 122.609 34.1751 122.433C33.8862 122.232 33.4047 122.131 32.7306 122.131H26.1343V125.452H23.0047V113.654H34.5843C35.4991 113.654 36.2454 113.906 36.8714 114.434C37.4732 114.937 37.7862 115.566 37.7862 116.321V119.062H37.7621ZM57.7436 117.603V122.836C57.7436 123.59 57.4306 124.194 56.7806 124.697C56.1306 125.2 55.4084 125.452 54.5658 125.452H45.3454C44.4547 125.452 43.7084 125.2 43.1066 124.697C42.5047 124.194 42.2158 123.565 42.2158 122.836V116.245C42.2158 115.591 42.5288 114.987 43.1306 114.434C43.7565 113.906 44.4788 113.629 45.2973 113.629H54.5417C55.4566 113.629 56.2269 113.881 56.8288 114.384C57.4306 114.887 57.7436 115.516 57.7436 116.27V117.603ZM77.7491 122.836C77.7491 123.59 77.4362 124.194 76.7862 124.697C76.1362 125.2 75.414 125.452 74.5714 125.452H65.351C64.4603 125.452 63.714 125.2 63.1121 124.697C62.5103 124.194 62.2214 123.565 62.2214 122.836V113.654H65.351V121.502C65.351 121.905 65.5195 122.232 65.8806 122.483C66.2417 122.735 66.6751 122.836 67.2047 122.836H72.7658C73.2714 122.836 73.7047 122.71 74.0417 122.433C74.3788 122.156 74.5714 121.854 74.5714 121.502V113.654H77.7491V122.836ZM96.9843 119.515C96.9843 120.245 96.6714 120.873 96.0214 121.377C95.3954 121.88 94.6491 122.131 93.8065 122.131H85.3566V125.452H82.2269V113.654H93.8065C94.7214 113.654 95.4677 113.906 96.0936 114.434C96.6954 114.937 97.0084 115.566 97.0084 116.321V119.515H96.9843Z" fill="#FFC600"/>
<path d="M67.4214 70.1121H67.3732L65.3991 77.4068H75.751H78.038V103.668H89.0399V77.4068H101.631V70.1121H77.9177H67.4214Z" fill="black"/>
<path d="M61.1621 88.4244L55.2158 68.955H44.4547L38.6288 88.0974L33.5251 68.955H19.7066L24.6899 85.582L39.038 104.85H43.9973L49.6788 86.7642L55.3603 104.85H68.6973L76.4973 78.8406H63.8343L61.1621 88.4244ZM74.9566 79.9977L67.8788 103.668H56.1547L49.6547 82.9911L43.1547 103.668H39.5677L25.6769 85.0034L21.2232 70.112H32.6584L38.5565 92.1975L45.2732 70.112H54.3732L61.2103 92.4491L64.6769 79.9977H74.9566Z" fill="black"/>
<path d="M0.302849 70.1121V103.668H11.2566V94.6124L14.3621 91.3172L23.751 103.668H35.8362L21.6566 84.9783L17.6603 70.1121L11.2566 83.1168V70.1121H0.302849Z" fill="black"/>
<path d="M43.4677 16.0554L43.6603 15.8793V15.6026V2.49725V2.09478L43.2991 1.94385L42.5047 1.642L41.7343 1.34015V2.1954V16.2818V17.5395L42.6491 16.7346L43.4677 16.0554ZM42.3362 2.1954L43.1306 2.49725V15.6026L42.3362 16.2818V2.1954Z" fill="black"/>
<path d="M58.6584 59.9749H57.0214H44.7677H43.1306H42.3362H41.7825V60.5534V61.132V61.7105H42.3362H43.1306H44.7677H57.0214H58.6584H59.4528H60.0065V61.132V60.5534V59.9749H59.4528H58.6584ZM59.4288 61.132H58.6343H56.9973H44.7436H43.1066H42.3121V60.5534H43.1066H44.7436H56.9973H58.6343H59.4288V61.132Z" fill="black"/>
<path d="M59.0677 16.7597L59.9825 17.5647V16.307V2.22055V1.3653L59.2121 1.66715L58.4177 1.96901L58.0565 2.11993V2.5224V15.6278V15.9045L58.2491 16.0806L59.0677 16.7597ZM58.6584 2.49725L59.4528 2.1954V16.2818L58.6584 15.6026V2.49725Z" fill="black"/>
<path d="M46.3325 12.5841H55.3603V12.6596H55.9862V11.6283H54.3973V10.8736H52.4473C52.7843 10.4963 52.9769 9.99324 52.9769 9.41469C52.9769 9.11283 52.9047 8.81098 52.8084 8.53428C52.4954 7.7545 51.7491 7.20111 50.8584 7.20111C50.064 7.20111 49.3658 7.67904 49.0047 8.35821C48.8362 8.68521 48.7399 9.03737 48.7399 9.41469C48.7399 9.96808 48.9565 10.4712 49.2695 10.8736H47.3195V11.6283H45.8269V12.6596H46.3566V12.5841H46.3325ZM49.2454 9.94293C49.2454 9.89262 49.2214 9.86746 49.2214 9.84231C49.1973 9.71654 49.1732 9.59077 49.1732 9.43984C49.1732 9.11283 49.2695 8.83614 49.3899 8.55944C49.6788 8.0312 50.2325 7.65388 50.8584 7.65388C51.4843 7.65388 52.038 8.00604 52.3269 8.55944C52.4714 8.81098 52.5677 9.11283 52.5677 9.43984C52.5677 9.59077 52.5436 9.71654 52.5195 9.84231C52.5195 9.89262 52.4954 9.91777 52.4954 9.96808C52.4714 10.0687 52.4473 10.1442 52.3991 10.2196C52.3751 10.2448 52.351 10.2951 52.351 10.3202C52.3028 10.3957 52.2547 10.4712 52.1825 10.5466C52.1584 10.5718 52.1343 10.5969 52.1103 10.6221C52.038 10.7227 51.9417 10.7982 51.8454 10.8736C51.8214 10.8988 51.7973 10.8988 51.7491 10.9239C51.701 10.9491 51.6288 10.9994 51.5806 11.0246C51.5565 11.0497 51.5084 11.0497 51.4843 11.0749C51.4121 11.1 51.364 11.1252 51.2917 11.1252C51.2677 11.1252 51.2195 11.1503 51.1954 11.1503C51.0991 11.1755 51.0028 11.1755 50.8825 11.1755C50.7862 11.1755 50.6658 11.1503 50.5695 11.1503C50.5454 11.1503 50.4973 11.1252 50.4732 11.1252C50.401 11.1 50.3528 11.1 50.2806 11.0749C50.2325 11.0497 50.2084 11.0497 50.1843 11.0246C50.1362 10.9994 50.064 10.9743 50.0158 10.9239C49.9917 10.8988 49.9677 10.8988 49.9195 10.8736C49.8232 10.7982 49.7269 10.7227 49.6547 10.6221C49.6306 10.5969 49.6066 10.5718 49.5825 10.5466C49.5343 10.4712 49.4621 10.3957 49.414 10.3202C49.3899 10.2951 49.3658 10.2448 49.3658 10.2196C49.2936 10.119 49.2695 10.0184 49.2454 9.94293ZM47.8732 11.6283V11.4522H49.2695H49.7269C49.7751 11.4773 49.8473 11.5276 49.8954 11.5528C49.9436 11.578 49.9917 11.6031 50.0399 11.6031C50.1121 11.6283 50.2084 11.6534 50.3047 11.6786C50.3528 11.6786 50.3769 11.7037 50.4251 11.7037C50.5695 11.7289 50.6899 11.754 50.8343 11.754C50.9788 11.754 51.0991 11.7289 51.2436 11.7037C51.2917 11.7037 51.3158 11.6786 51.388 11.6786C51.4843 11.6534 51.5566 11.6283 51.6288 11.6031C51.6769 11.578 51.7251 11.5528 51.7732 11.5528C51.8214 11.5276 51.8936 11.5025 51.9417 11.4522H52.3991H53.7954V11.6283V11.9804H47.8251V11.6283H47.8732Z" fill="black"/>
<path d="M51.8936 47.8505L51.8454 47.775L51.7973 47.6996L51.7251 47.6493L51.6529 47.5989L51.5566 47.5738H51.4843H51.388L51.3158 47.5989L51.2436 47.6493L51.1714 47.7247L51.1232 47.8002L51.0991 47.8756L51.0751 47.9511V48.0517V48.1272L51.1232 48.2278L51.1714 48.2781L51.2195 48.3536L51.2917 48.4039L51.388 48.429L51.4603 48.4542H51.5566L51.6288 48.429L51.701 48.4039L51.7732 48.3284L51.8214 48.2781L51.8695 48.2027L51.8936 48.1272L51.9177 48.0266V47.926L51.8936 47.8505Z" fill="black"/>
<path d="M51.8936 41.4864L51.8454 41.411L51.7973 41.3355L51.7251 41.2852L51.6529 41.2349L51.5566 41.2097H51.4843H51.388L51.3158 41.2349L51.2436 41.2852L51.1714 41.3607L51.1232 41.4361L51.0991 41.5116L51.0751 41.5871V41.6877V41.7631L51.1232 41.8638L51.1714 41.9392L51.2195 41.9895L51.2917 42.0398L51.364 42.065L51.4603 42.0901H51.5566L51.6288 42.065L51.701 42.0398L51.7732 41.9644L51.8214 41.9141L51.8695 41.8386L51.8936 41.7631L51.9177 41.6625V41.5619L51.8936 41.4864Z" fill="black"/>
<path d="M50.6658 47.8505L50.6177 47.775L50.5695 47.6996L50.4973 47.6493L50.4251 47.5989L50.3528 47.5738H50.2565H50.1843L50.088 47.5989L50.0158 47.6493L49.9677 47.7247L49.9195 47.8002L49.8714 47.8756L49.8473 47.9511V48.0517L49.8714 48.1272L49.8954 48.2278L49.9436 48.2781L50.0158 48.3536L50.088 48.4039L50.1603 48.429L50.2325 48.4542H50.3288L50.401 48.429L50.4973 48.3787L50.5454 48.3284L50.6177 48.2781L50.6658 48.2027L50.6899 48.1272V48.0266V47.926L50.6658 47.8505Z" fill="black"/>
<path d="M50.6658 41.4864L50.6177 41.411L50.5695 41.3355L50.4973 41.2852L50.4251 41.2349L50.3528 41.2097H50.2565H50.1843L50.088 41.2601L50.0158 41.2852L49.9677 41.3607L49.9195 41.4361L49.8714 41.5116L49.8473 41.5871V41.6877L49.8714 41.7631L49.8954 41.8638L49.9436 41.9392L50.0158 41.9895L50.088 42.0398L50.1603 42.065L50.2325 42.0901H50.3288L50.401 42.065L50.4973 42.0398L50.5454 41.9644L50.6177 41.9141L50.6658 41.8386L50.6899 41.7631V41.6625V41.5619L50.6658 41.4864Z" fill="black"/>
<path d="M38.5325 47.9008H38.364H38.1954H38.0269H37.8584H37.6899L37.5214 47.926L37.3528 47.9511L37.1843 48.0014L37.0158 48.0517L36.8714 48.102L36.7029 48.1523L36.5343 48.2278L36.3899 48.3033L36.2454 48.3787L36.0769 48.4542L35.9325 48.5548L35.8121 48.6554L35.6677 48.756L35.5232 48.8567L35.4029 48.9824L35.2825 49.1082L35.1621 49.234L35.0417 49.3597L34.9454 49.4855L34.8251 49.6364L34.7288 49.7874L34.6566 49.9383L34.5603 50.0892L34.488 50.2401L34.4158 50.4162L34.3436 50.5672L34.2714 50.7432L34.2232 50.8942L34.1751 51.0702L34.151 51.2463L34.1029 51.4224L34.0788 51.5985V51.7746L34.0547 51.9506V52.1267V52.3028L34.0788 52.4789V52.655L34.1029 52.831L34.151 53.0071L34.1751 53.1832L34.2232 53.3593L34.2714 53.5354L34.3436 53.6863L34.4158 53.8624L34.488 54.0133L34.5603 54.1642L34.6566 54.3151L34.7288 54.4661L34.8251 54.617L34.9454 54.7679L35.0417 54.8937L35.1621 55.0446L35.2825 55.1704L35.4029 55.271L35.5232 55.3968L35.6677 55.4974L35.8121 55.6232L35.9325 55.7238L36.0769 55.7993L36.2454 55.8999L36.3899 55.9753L36.5343 56.0508L36.7029 56.1011L36.8714 56.1766L37.0158 56.2269L37.1843 56.252L37.3528 56.3023L37.5214 56.3275L37.6899 56.3526H37.8584L38.0269 56.3778H38.1954L38.364 56.3526H38.5325L38.701 56.3275L38.8695 56.3023V53.8372L38.8214 53.8121L38.2917 53.636L37.7621 53.4599L37.2566 53.2838L37.1843 53.2587L37.1121 53.2084L37.0399 53.158L36.9917 53.1329L36.9436 53.0574L36.8954 53.0071L36.8473 52.9317L36.7991 52.8813L36.7751 52.8059L36.751 52.7304L36.7269 52.655L36.7029 52.5795V52.504V52.4034L36.7269 52.328V52.2525L36.751 52.177L36.7991 52.1016L36.8232 52.0261L36.8714 51.9758L36.9195 51.9003L36.9677 51.85L38.8695 50.0138V47.9511L38.701 47.926L38.5325 47.9008Z" fill="black"/>
<path d="M63.1603 56.3526H63.3288L63.4973 56.3778H63.6658L63.8584 56.3526H64.0269L64.1954 56.3275L64.364 56.3023L64.5084 56.252L64.6769 56.2269L64.8454 56.1766L65.014 56.1011L65.1584 56.0508L65.3269 55.9753L65.4714 55.8999L65.6158 55.7993L65.7603 55.7238L65.9047 55.6232L66.0491 55.4974L66.1695 55.3968L66.314 55.271L66.4343 55.1704L66.5547 55.0446L66.6751 54.8937L66.7714 54.7679L66.8677 54.617L66.964 54.4661L67.0603 54.3151L67.1566 54.1642L67.2288 54.0133L67.301 53.8624L67.3732 53.6863L67.4214 53.5354L67.4695 53.3593L67.5177 53.1832L67.5658 53.0071L67.5899 52.831L67.614 52.655L67.638 52.4789V52.3028L67.6621 52.1267L67.638 51.9506V51.7746L67.614 51.5985L67.5899 51.4224L67.5658 51.2463L67.5177 51.0702L67.4695 50.8942L67.4214 50.7432L67.3732 50.5672L67.301 50.4162L67.2288 50.2401L67.1566 50.0892L67.0603 49.9383L66.964 49.7874L66.8677 49.6364L66.7714 49.4855L66.6751 49.3597L66.5547 49.234L66.4343 49.1082L66.314 48.9824L66.1695 48.8567L66.0491 48.756L65.9047 48.6554L65.7603 48.5548L65.6158 48.4542L65.4714 48.3787L65.3269 48.3033L65.1584 48.2278L65.014 48.1523L64.8454 48.102L64.6769 48.0517L64.5084 48.0014L64.364 47.9511L64.1954 47.926L64.0269 47.9008H63.8584H63.6658H63.4973H63.3288H63.1603L62.9917 47.926L62.8473 47.9511V50.0138L64.7491 51.85L64.7973 51.9003L64.8454 51.9758L64.8936 52.0261L64.9177 52.1016L64.9417 52.177L64.9658 52.2525L64.9899 52.328V52.4034L65.014 52.504L64.9899 52.5543V52.5795V52.655L64.9658 52.7304L64.9417 52.8059L64.9177 52.8813L64.8695 52.9317L64.8214 53.0071L64.7732 53.0574L64.7251 53.1329L64.6529 53.158L64.6047 53.2084L64.5325 53.2587L64.4603 53.2838L63.9306 53.4599L63.4251 53.636L62.8954 53.8121L62.8473 53.8372V56.3023L62.9917 56.3275L63.1603 56.3526Z" fill="black"/>
<path d="M44.7677 54.9943L43.1066 54.8182L42.6491 54.7679L42.6732 54.9188L42.6973 55.0949L42.7454 55.2459L42.7936 55.4219L42.8658 55.598L42.938 55.7489L43.0103 55.925L43.0825 56.0759L43.1066 56.1514L43.1547 56.2269L43.251 56.3778L43.3473 56.5287L43.4436 56.6545L43.564 56.8054L43.6843 56.9312L43.8047 57.057L43.9251 57.1827L44.0454 57.3085L44.1899 57.4091L44.3103 57.5097L44.4547 57.6104L44.5991 57.711L44.7436 57.7864H44.7677L44.9121 57.8619L45.0565 57.9374L45.2251 58.0128L45.3695 58.0631L45.538 58.1135L45.7065 58.1638L45.8751 58.1889L46.0436 58.2141L46.2121 58.2392L46.3806 58.2644H46.5491H46.7177H46.8862L47.0547 58.2392L47.2232 58.2141L47.3917 58.1889L47.5603 58.1638L47.7288 58.1135L47.8973 58.0631L48.0417 58.0128L48.2103 57.9374L48.3547 57.8619L48.5232 57.7864L48.6677 57.711L48.8121 57.6104L48.9565 57.5097L49.101 57.4091L49.2214 57.3085L49.3417 57.1827L49.4862 57.057L49.5825 56.9312L49.7028 56.8054L49.8232 56.6545L49.9195 56.5287L50.0158 56.3778L50.1121 56.2269L50.1843 56.0759L50.2806 55.925L50.3528 55.7489L50.3769 55.6483L44.7677 54.9943Z" fill="black"/>
<path d="M56.9973 54.9943L51.388 55.6483H51.364L51.4121 55.7489L51.4843 55.925L51.5806 56.0759L51.6528 56.2269L51.7491 56.3778L51.8454 56.5287L51.9417 56.6545L52.0621 56.8054L52.1825 56.9312L52.2788 57.057L52.4232 57.1827L52.5436 57.3085L52.664 57.4091L52.8084 57.5097L52.9528 57.6104L53.0973 57.711L53.2417 57.7864L53.4102 57.8619L53.5547 57.9374L53.7232 58.0128L53.8677 58.0631L54.0362 58.1135L54.2047 58.1638L54.3732 58.1889L54.5417 58.2141L54.7102 58.2392L54.8788 58.2644H55.0473H55.2158H55.3843L55.5528 58.2392L55.7214 58.2141L55.8899 58.1889L56.0584 58.1638L56.2269 58.1135L56.3954 58.0631L56.5399 58.0128L56.7084 57.9374L56.8528 57.8619L56.9973 57.7864H57.0214L57.1658 57.711L57.3103 57.6104L57.4547 57.5097L57.5751 57.4091L57.7195 57.3085L57.8399 57.1827L57.9602 57.057L58.0806 56.9312L58.201 56.8054L58.3214 56.6545L58.4177 56.5287L58.514 56.3778L58.6103 56.2269L58.6584 56.1514L58.6825 56.0759L58.7547 55.925L58.8269 55.7489L58.8991 55.598L58.9714 55.4219L59.0195 55.2459L59.0677 55.0949L59.0917 54.9188L59.1158 54.7679L58.6584 54.8182L56.9973 54.9943Z" fill="black"/>
<path d="M46.7417 14.0934V18.4954H54.951V13.867V13.3891V12.9363H46.7417V13.3891V14.0934Z" fill="black"/>
<path d="M50.8584 10.2196C51.2839 10.2196 51.6288 9.85924 51.6288 9.41469C51.6288 8.97013 51.2839 8.60975 50.8584 8.60975C50.4329 8.60975 50.088 8.97013 50.088 9.41469C50.088 9.85924 50.4329 10.2196 50.8584 10.2196Z" fill="black"/>
<path d="M46.6454 54.3655C46.7177 54.3655 46.7658 54.3403 46.814 54.3152C46.8621 54.29 46.9103 54.2397 46.9343 54.1642C46.9343 54.1391 46.9584 54.1391 46.9584 54.1139C46.9584 54.0888 46.9584 54.0636 46.9584 54.0385C46.9584 54.0133 46.9584 53.9881 46.9584 53.963C46.9584 53.9378 46.9584 53.9127 46.9343 53.9127C46.8862 53.7869 46.7658 53.7114 46.6454 53.7114C46.4769 53.7114 46.3325 53.8624 46.3325 54.0385C46.3325 54.2145 46.4528 54.3655 46.6454 54.3655Z" fill="black"/>
<path d="M37.9066 51.9003C37.8825 51.9255 37.8825 51.9255 37.8584 51.9506C37.8343 52.0009 37.8103 52.0764 37.8103 52.1267C37.8103 52.2022 37.8343 52.2525 37.8584 52.3028C37.8584 52.328 37.8825 52.328 37.9066 52.3531C37.9547 52.4034 38.051 52.4537 38.1232 52.4537C38.2917 52.4537 38.4362 52.3028 38.4362 52.1267C38.4362 51.9506 38.2917 51.7997 38.1232 51.7997C38.0269 51.7997 37.9547 51.85 37.9066 51.9003Z" fill="black"/>
<path d="M55.1195 54.3655C55.2399 54.3655 55.3603 54.29 55.4084 54.1642C55.4084 54.1391 55.4325 54.1391 55.4325 54.1139C55.4325 54.0888 55.4325 54.0636 55.4325 54.0385C55.4325 54.0133 55.4325 53.9881 55.4325 53.963C55.4325 53.9378 55.4325 53.9127 55.4084 53.9127C55.3603 53.7869 55.2399 53.7114 55.1195 53.7114C54.951 53.7114 54.8065 53.8624 54.8065 54.0385C54.8065 54.2145 54.951 54.3655 55.1195 54.3655Z" fill="black"/>
<path d="M63.8825 52.2525C63.8825 52.2273 63.9065 52.2022 63.9065 52.2022C63.9065 52.177 63.9065 52.1519 63.9065 52.1267C63.9065 52.1016 63.9065 52.0764 63.9065 52.0513C63.9065 52.0261 63.9065 52.0261 63.8825 52.0009C63.8343 51.8752 63.7139 51.7997 63.5936 51.7997C63.4251 51.7997 63.2806 51.9506 63.2806 52.1267C63.2806 52.3028 63.4251 52.4537 63.5936 52.4537C63.7139 52.4537 63.8343 52.3783 63.8825 52.2525Z" fill="black"/>
<path d="M91.2788 43.7503L62.6788 19.1243V0.157894H59.4288L56.9973 1.54138V14.194L55.3602 12.7602V13.3136V14.5965V18.8727H46.3325V14.848V13.3136V12.8105L44.7436 14.194V1.54138L42.3121 0.157894H39.0862V19.1243L10.4862 43.7503L0.134327 52.655V64.5278H8.46396H92.9399H101.607V52.655L91.2788 43.7503ZM10.4862 48.1272L39.0862 23.5766V24.0042L10.4862 48.6303V48.1272ZM10.4862 50.7432L39.0862 26.3184V47.9763V50.0389V53.8372V56.3023V58.8681H10.4862V50.7432ZM10.4862 60.5534H39.0862V61.132H10.4862V60.5534ZM91.2788 61.132H62.6788V60.5534H91.2788V61.132ZM91.2788 58.8429H62.6788V56.2772V53.8121V50.0138V47.9511V26.3184L91.2788 50.7432V58.8429ZM91.2788 48.6303L62.6788 24.0042V23.5766L91.2788 48.1272V48.6303ZM91.2788 47.3726L63.0399 23.1238L62.1251 22.344V23.5766V24.0042V24.2809L62.3417 24.457L90.9417 49.0831L91.3028 49.3849V49.9886L63.064 25.8656L62.1491 25.0858V26.3184V47.9511V50.0138V53.8121V56.2772V58.8429V59.4215H62.7028H91.3028V59.9497H62.6788H62.1251V60.5283V61.1068V61.6854H62.6788H91.2788V63.8989H10.4862V61.7357H39.0862H39.6399V61.1571V60.5786V59.9749H39.0862H10.4862V59.4466H39.0862H39.6399V58.8681V56.3023V53.8372V50.0389V47.9763V26.3184V25.0858L38.7251 25.8656L10.4862 49.9886V49.3849L10.8473 49.0831L39.4473 24.457L39.664 24.2809V24.0042V23.5766V22.344L38.7491 23.1238L10.5103 47.3726V44.505L10.8714 44.2031L39.4714 19.577L39.688 19.401V19.1243V0.736444H42.2399L44.238 1.89354V14.1689V15.4266L45.1528 14.6216L45.8028 14.0431V14.8229V18.8476V19.4261H46.3565H55.3843H55.938V18.8476V14.5713V13.9928L56.6602 14.6216L57.5751 15.4266V14.1689V1.89354L59.5732 0.736444H62.1251V19.1243V19.401L62.3417 19.577L90.9417 44.2031L91.3028 44.505V47.3726H91.2788Z" fill="black"/>
<path d="M58.6584 27.1233H58.1047V27.7019V44.7565L57.5991 44.2534V27.6767V27.0982H57.0454H52.5917H52.2066H52.014H49.751H49.6306H49.1973H44.8158H44.2621V27.6767V44.2534L43.7566 44.7565V27.7019V27.1233H43.2029H42.4084H41.8547V27.7019V46.8695V54.6925V58.8429V59.4215H42.4084H43.2029H43.7566V58.8429V57.9625L44.2621 58.3398V58.8429V59.4215H44.8158H57.0695H57.6232V58.8429V58.3398L58.1288 57.9625V58.8429V59.4215H58.6825H59.4769H60.0306V58.8429V54.6925V46.8946V27.727V27.1485H59.4769H58.6584V27.1233ZM49.3658 27.8276H52.3269V48.9573H49.3658V27.8276ZM59.4288 46.8946V54.6925V58.8429H58.6343V56.4784L58.3214 56.906L57.8158 57.4343L57.238 57.8619L56.9973 57.9877V58.8429H44.7436V57.9877L44.5029 57.8619L43.9251 57.4343L43.4195 56.906L43.1066 56.4533V58.8429H42.3121V54.6925V46.8946V27.727H43.1066V46.14L44.7436 44.5553V27.727H49.1251V40.606V49.2088H52.5195V40.606V27.727H56.9732V44.5553L58.6103 46.14V27.727H59.4047V46.8946H59.4288Z" fill="black"/>
<path d="M17.6843 114.409C17.0825 113.906 16.3121 113.654 15.3732 113.654H7.83803C7.01951 113.654 6.29729 113.931 5.67137 114.459C5.04544 114.987 4.75655 115.591 4.75655 116.27V122.861C4.75655 123.59 5.04544 124.219 5.67137 124.722C6.27322 125.225 7.01951 125.477 7.91026 125.477H15.4454C16.264 125.477 17.0103 125.225 17.6603 124.722C18.3103 124.219 18.6232 123.59 18.6232 122.861V119.163H11.6417V121.527H15.4695C15.4695 121.905 15.2769 122.207 14.9399 122.483C14.5788 122.735 14.1214 122.861 13.5917 122.861H9.76396C9.23433 122.861 8.80099 122.735 8.43988 122.508C8.07877 122.282 7.91026 121.955 7.91026 121.527V117.603C7.91026 117.276 8.10285 116.949 8.46396 116.673C8.82507 116.396 9.28248 116.245 9.78803 116.245H13.5917C14.0732 116.245 14.5066 116.396 14.8917 116.648C15.2769 116.924 15.4695 117.226 15.4695 117.578H18.5991V116.321C18.5991 115.566 18.3103 114.937 17.6843 114.409Z" fill="black"/>
<path d="M36.8714 114.409C36.2695 113.906 35.4991 113.629 34.5843 113.629H23.0047V125.426H26.1343V122.106H32.7306C33.4047 122.106 33.8862 122.207 34.1751 122.408C34.4158 122.584 34.5603 122.861 34.5603 123.238V125.426H37.738V122.584C37.738 122.182 37.5454 121.854 37.1843 121.603C37.0158 121.502 36.7751 121.351 36.438 121.2C36.8473 120.949 37.1603 120.647 37.401 120.27C37.6417 119.892 37.7621 119.49 37.7621 119.037V116.295C37.7621 115.566 37.4732 114.937 36.8714 114.409ZM34.6084 118.182C34.6084 118.534 34.4399 118.861 34.1028 119.113C33.7658 119.364 33.3325 119.515 32.8028 119.515H26.1584V116.245H32.8028C33.2843 116.245 33.6936 116.371 34.0547 116.648C34.4158 116.924 34.6084 117.226 34.6084 117.578V118.182Z" fill="black"/>
<path d="M56.8288 114.409C56.2269 113.906 55.4565 113.654 54.5417 113.654H45.2973C44.4788 113.654 43.7565 113.931 43.1306 114.459C42.5047 114.987 42.2158 115.591 42.2158 116.27V122.861C42.2158 123.59 42.5047 124.219 43.1065 124.722C43.7084 125.225 44.4547 125.477 45.3454 125.477H54.5658C55.4084 125.477 56.1306 125.225 56.7806 124.722C57.4065 124.219 57.7436 123.615 57.7436 122.861V117.629V116.321C57.7436 115.541 57.4306 114.912 56.8288 114.409ZM54.5658 121.502C54.5658 121.854 54.3973 122.181 54.0362 122.433C53.6991 122.71 53.2658 122.836 52.7602 122.836H47.1991C46.6695 122.836 46.2121 122.71 45.8751 122.483C45.514 122.232 45.3454 121.905 45.3454 121.502V117.629C45.3454 117.302 45.538 117 45.8991 116.698C46.2843 116.396 46.7177 116.27 47.2232 116.27H52.7602C53.2417 116.27 53.651 116.396 54.0121 116.673C54.3732 116.949 54.5658 117.251 54.5658 117.578V121.502Z" fill="black"/>
<path d="M74.5714 121.502C74.5714 121.854 74.4029 122.181 74.0417 122.433C73.7047 122.71 73.2714 122.836 72.7658 122.836H67.2047C66.6751 122.836 66.2177 122.71 65.8806 122.483C65.5195 122.232 65.351 121.905 65.351 121.502V113.654H62.2214V122.836C62.2214 123.565 62.5103 124.194 63.1121 124.697C63.714 125.2 64.4603 125.452 65.351 125.452H74.5714C75.414 125.452 76.1362 125.2 76.7862 124.697C77.4121 124.194 77.7492 123.59 77.7492 122.836V113.654H74.5714V121.502Z" fill="black"/>
<path d="M96.0695 114.409C95.4677 113.906 94.6973 113.629 93.7825 113.629H82.2029V125.426H85.3325V122.106H93.7825C94.6251 122.106 95.3473 121.854 95.9973 121.351C96.6473 120.848 96.9603 120.245 96.9603 119.49V116.27C96.9843 115.566 96.6954 114.937 96.0695 114.409ZM93.8306 118.182C93.8306 118.534 93.6621 118.861 93.3251 119.113C92.988 119.364 92.5547 119.515 92.0251 119.515H85.3806V116.245H92.0251C92.5066 116.245 92.9158 116.371 93.2769 116.648C93.638 116.924 93.8306 117.226 93.8306 117.578V118.182Z" fill="black"/>
</svg>
